<?xml version="1.0" encoding="utf-8"?>
<!-- Generator: Adobe Illustrator 24.0.0, SVG Export Plug-In . SVG Version: 6.00 Build 0)  -->
<svg version="1.1" id="Capa_1" xmlns="http://www.w3.org/2000/svg" xmlns:xlink="http://www.w3.org/1999/xlink" x="0px" y="0px"
	 viewBox="0 0 30 30" style="enable-background:new 0 0 30 30;" xml:space="preserve">
<style type="text/css">
	.st0{fill:#DCACC0;}
</style>
<g>
	<g>
		<path class="st0" d="M13.4,16.4l-3.9-1.6c-0.4-0.2-0.4-0.7,0-0.9l3.9-1.6c1-0.4,2.1-0.4,3.1,0l4,1.6c0.4,0.2,0.4,0.7,0,0.9
			l-3.9,1.6C15.6,16.8,14.4,16.8,13.4,16.4z"/>
		<path class="st0" d="M9.5,15.5l4.4,1.8c0.4,0.2,0.7,0.6,0.7,1.1v5.3c0,0.9-1,1.5-1.8,1l-4.4-2.7c-0.3-0.2-0.6-0.6-0.6-1v-4.4
			C7.9,15.7,8.8,15.1,9.5,15.5z"/>
		<path class="st0" d="M22.1,16.6v4.4c0,0.4-0.2,0.8-0.6,1l-4.4,2.7c-0.8,0.5-1.8-0.1-1.8-1v-5.3c0-0.5,0.3-0.9,0.7-1.1l4.4-1.8
			C21.2,15.2,22.1,15.7,22.1,16.6z"/>
	</g>
	<path class="st0" d="M16.1,5.9l-0.4-0.6l-0.4-0.6c-0.2-0.3-0.6-0.3-0.8,0l-0.4,0.6l-0.4,0.6c-0.2,0.3,0,0.6,0.4,0.6h0.2V11
		c0,0.3,0.2,0.5,0.5,0.5s0.5-0.2,0.5-0.5V6.5h0.2C16,6.5,16.2,6.2,16.1,5.9z"/>
	<path class="st0" d="M7.8,21.8c-0.1-0.3-0.4-0.4-0.7-0.3l-4.9,2.2l-0.1-0.2c-0.2-0.3-0.6-0.3-0.7-0.1l-0.3,0.6l-0.3,0.6
		c-0.2,0.3,0,0.7,0.3,0.7l0.7,0.1l0.7,0.1c0.3,0,0.5-0.3,0.4-0.6l-0.1-0.2l4.8-2.1C7.8,22.4,7.9,22.1,7.8,21.8z"/>
	<path class="st0" d="M29.3,24.7L29,24.1l-0.3-0.6c-0.2-0.3-0.6-0.3-0.7-0.1l-0.1,0.2l-4.6-2c-0.3-0.1-0.6,0-0.7,0.3
		c-0.1,0.3,0,0.6,0.3,0.7l4.4,2l0,0.1c-0.2,0.3,0,0.7,0.3,0.7l0.7,0.1l0.7,0.1C29.2,25.4,29.4,25,29.3,24.7z"/>
</g>
</svg>
