<?xml version="1.0" encoding="utf-8"?>
<!-- Generator: Adobe Illustrator 24.0.0, SVG Export Plug-In . SVG Version: 6.00 Build 0)  -->
<svg version="1.1" id="Capa_1" xmlns="http://www.w3.org/2000/svg" xmlns:xlink="http://www.w3.org/1999/xlink" x="0px" y="0px"
	 viewBox="0 0 30 30" style="enable-background:new 0 0 30 30;" xml:space="preserve">
<style type="text/css">
	.st0{fill:#DCACC0;}
</style>
<g>
	<path class="st0" d="M4.3,28.2h15.9v1.2H4.3c-0.3,0-0.6-0.3-0.6-0.6C3.7,28.5,3.9,28.2,4.3,28.2z"/>
	<path class="st0" d="M26.3,28.8c0,0.3-0.3,0.6-0.6,0.6h-3.4l0.3-0.2c0.3-0.2,0.3-0.7,0-0.9l-0.3-0.2h3.4
		C26.1,28.2,26.3,28.5,26.3,28.8z"/>
	<path class="st0" d="M20.8,30c-0.1,0-0.3-0.1-0.3-0.4V28c0-0.2,0.2-0.4,0.3-0.4c0.1,0,0.1,0,0.1,0l1.3,0.8c0.1,0.1,0.2,0.2,0.2,0.3
		c0,0.1-0.1,0.2-0.2,0.3L21,30C20.9,30,20.9,30,20.8,30z"/>
	<path class="st0" d="M27.9,12.4C27.6,5.3,21.6-0.3,14.5,0C7.4,0.3,1.9,6.2,2.1,13.3C2.4,20.4,8.4,26,15.5,25.7
		C22.6,25.5,28.1,19.5,27.9,12.4z M9.4,13.4c-0.8,0-1.5-0.6-1.5-1.4c0-0.8,0.6-1.5,1.4-1.5c0.8,0,1.5,0.6,1.5,1.4
		C10.9,12.7,10.2,13.4,9.4,13.4z M17.1,14.7c-0.4,0.5-1,0.7-1.6,0.8c0,0,0,0-0.1,0c-0.7,0-1.3-0.3-1.8-0.9c-0.5-0.6-0.8-1.4-0.6-2.2
		l1.5,0.2c-0.1,0.4,0,0.8,0.3,1c0.2,0.2,0.4,0.3,0.6,0.3c0.2,0,0.4-0.1,0.6-0.3c0.1-0.1,0.4-0.5,0.3-0.9l1.5-0.1
		C17.9,13.4,17.6,14.2,17.1,14.7z M20.6,13c-0.8,0-1.5-0.6-1.5-1.4c0-0.8,0.6-1.5,1.4-1.5c0.8,0,1.5,0.6,1.5,1.4
		C22.1,12.3,21.4,12.9,20.6,13z"/>
</g>
</svg>
