<?xml version="1.0" encoding="utf-8"?>
<!-- Generator: Adobe Illustrator 24.0.0, SVG Export Plug-In . SVG Version: 6.00 Build 0)  -->
<svg version="1.1" id="Capa_1" xmlns="http://www.w3.org/2000/svg" xmlns:xlink="http://www.w3.org/1999/xlink" x="0px" y="0px"
	 viewBox="0 0 30 30" style="enable-background:new 0 0 30 30;" xml:space="preserve">
<style type="text/css">
	.st0{fill:#DCACC0;}
</style>
<g>
	<path class="st0" d="M10.5,15.6h-3v3.5h3c0.3,0,0.5,0,0.8-0.1c0.2-0.1,0.5-0.1,0.7-0.3c0.2-0.1,0.3-0.3,0.5-0.5
		c0.1-0.2,0.2-0.5,0.2-0.8c0-0.7-0.2-1.1-0.6-1.4C11.6,15.7,11.1,15.6,10.5,15.6z"/>
	<path class="st0" d="M11.5,13.3c0.3-0.2,0.5-0.6,0.5-1.2c0-0.3-0.1-0.5-0.2-0.7c-0.1-0.2-0.3-0.3-0.4-0.4c-0.2-0.1-0.4-0.2-0.6-0.2
		c-0.2,0-0.5-0.1-0.7-0.1H7.5v3h2.8C10.8,13.7,11.2,13.5,11.5,13.3z"/>
	<path class="st0" d="M25,0H5C2.4,0,0,2.4,0,5v20c0,2.6,2.4,5,5,5h20c2.6,0,5-2.4,5-5V5C30,2.4,27.6,0,25,0z M18.2,9.4h5.1v1.3h-5.1
		V9.4z M14.9,19.2c-0.2,0.5-0.6,0.9-1,1.1c-0.4,0.3-0.9,0.5-1.4,0.7c-0.5,0.1-1.1,0.2-1.7,0.2H4.7V8.5h6c0.6,0,1.2,0.1,1.7,0.2
		c0.5,0.1,0.9,0.3,1.3,0.5c0.4,0.2,0.6,0.6,0.8,1s0.3,0.9,0.3,1.5s-0.1,1.2-0.4,1.6c-0.3,0.4-0.7,0.8-1.3,1c0.8,0.2,1.4,0.6,1.7,1.2
		c0.4,0.6,0.6,1.2,0.6,2C15.3,18.2,15.2,18.7,14.9,19.2z M19.3,19c0.4,0.4,0.9,0.6,1.6,0.6c0.5,0,0.9-0.1,1.3-0.4s0.6-0.5,0.7-0.8
		h2.2c-0.4,1.1-0.9,1.9-1.6,2.4s-1.6,0.7-2.7,0.7c-0.7,0-1.4-0.1-2-0.3c-0.6-0.2-1.1-0.6-1.5-1s-0.7-0.9-0.9-1.5
		c-0.2-0.6-0.3-1.2-0.3-2c0-0.7,0.1-1.3,0.3-1.9c0.2-0.6,0.5-1.1,1-1.5c0.4-0.4,0.9-0.8,1.5-1s1.2-0.4,1.9-0.4c0.8,0,1.5,0.1,2,0.5
		c0.6,0.3,1.1,0.7,1.4,1.2c0.4,0.5,0.6,1.1,0.8,1.7c0.2,0.7,0.2,1.3,0.2,2h-6.6C18.7,18,18.9,18.7,19.3,19z"/>
	<path class="st0" d="M20.8,13.7c-0.4,0-0.7,0.1-1,0.2c-0.3,0.1-0.5,0.3-0.6,0.5c-0.2,0.2-0.3,0.4-0.3,0.6c-0.1,0.2-0.1,0.4-0.1,0.6
		h4.1c-0.1-0.6-0.3-1.1-0.6-1.5C21.9,13.9,21.4,13.7,20.8,13.7z"/>
</g>
</svg>
