<?xml version="1.0" encoding="utf-8"?>
<!-- Generator: Adobe Illustrator 24.0.0, SVG Export Plug-In . SVG Version: 6.00 Build 0)  -->
<svg version="1.1" id="Capa_1" xmlns="http://www.w3.org/2000/svg" xmlns:xlink="http://www.w3.org/1999/xlink" x="0px" y="0px"
	 viewBox="0 0 30 30" style="enable-background:new 0 0 30 30;" xml:space="preserve">
<style type="text/css">
	.st0{fill:#DCACC0;}
</style>
<path class="st0" d="M25,0H5C2.4,0,0,2.4,0,5v20c0,2.6,2.4,5,5,5h20c2.6,0,5-2.4,5-5V5C30,2.4,27.6,0,25,0z M7.2,7.5h15.5
	c1.1,0,2.1,0.6,2.7,1.4l-6.5,4.4C16.6,15,13.4,15,11,13.4L4.5,8.9C5.1,8.1,6.1,7.5,7.2,7.5z M26.1,19.2c0,1.8-1.5,3.3-3.3,3.3H7.2
	c-1.8,0-3.3-1.5-3.3-3.3v-8.5c0-0.3,0.1-0.6,0.1-0.9l6.3,4.3c1.3,0.9,3,1.4,4.6,1.4s3.3-0.5,4.6-1.4l6.3-4.3
	c0.1,0.3,0.1,0.6,0.1,0.9V19.2z"/>
</svg>
