<?xml version="1.0" encoding="utf-8"?>
<!-- Generator: Adobe Illustrator 24.0.0, SVG Export Plug-In . SVG Version: 6.00 Build 0)  -->
<svg version="1.1" id="Capa_1" xmlns="http://www.w3.org/2000/svg" xmlns:xlink="http://www.w3.org/1999/xlink" x="0px" y="0px"
	 viewBox="0 0 30 30" style="enable-background:new 0 0 30 30;" xml:space="preserve">
<style type="text/css">
	.st0{fill:#DCACC0;}
</style>
<g>
	<path class="st0" d="M26.2,4.3v1h-2.9c-1.2,0-2.2-1-2.2-2.2V0.2h1c0,0,0.1,0,0.1,0C24.4,0.2,26.2,2.1,26.2,4.3z"/>
	<path class="st0" d="M23.1,6.2c-1.7,0-3.1-1.4-3.1-3.1V0.2H8C5.7,0.2,3.8,2,3.8,4.3v21.4c0,2.3,1.9,4.1,4.1,4.1h13.9
		c2.3,0,4.1-1.9,4.1-4.1V6.2H23.1z M10.9,10.5c0-1,0.8-1.7,1.7-1.7H18c1,0,1.7,0.8,1.7,1.7v3.3c0,1-0.8,1.7-1.7,1.7h-5.3
		c-1,0-1.7-0.8-1.7-1.7V10.5z M9.8,17.5h11c0.2,0,0.4,0.2,0.4,0.4c0,0.2-0.2,0.4-0.4,0.4h-11c-0.2,0-0.4-0.2-0.4-0.4
		C9.4,17.7,9.6,17.5,9.8,17.5z M19.2,22.8h-7.8c-0.2,0-0.4-0.2-0.4-0.4c0-0.2,0.2-0.4,0.4-0.4h7.8c0.2,0,0.4,0.2,0.4,0.4
		C19.6,22.6,19.4,22.8,19.2,22.8z M22.5,20.5H8.2c-0.2,0-0.4-0.2-0.4-0.4c0-0.2,0.2-0.4,0.4-0.4h14.3c0.2,0,0.4,0.2,0.4,0.4
		C22.9,20.4,22.7,20.5,22.5,20.5z"/>
</g>
</svg>
