<?xml version="1.0" encoding="utf-8"?>
<!-- Generator: Adobe Illustrator 24.0.0, SVG Export Plug-In . SVG Version: 6.00 Build 0)  -->
<svg version="1.1" id="Capa_1" xmlns="http://www.w3.org/2000/svg" xmlns:xlink="http://www.w3.org/1999/xlink" x="0px" y="0px"
	 viewBox="0 0 30 30" style="enable-background:new 0 0 30 30;" xml:space="preserve">
<style type="text/css">
	.st0{fill:#DCACC0;}
</style>
<path class="st0" d="M25,0H5C2.4,0,0,2.4,0,5v20c0,2.6,2.4,5,5,5h20c2.6,0,5-2.4,5-5V5C30,2.4,27.6,0,25,0z M20.7,8.8h-3.5
	c-0.3,0-0.9,0.4-0.9,1.1v1.7h4.3v4.3h-4.3v9.7h-4v-9.7h-3v-4.3h3.2V10c0-2.9,2.2-5.5,4.8-5.5h3.5L20.7,8.8L20.7,8.8z"/>
</svg>
