<?xml version="1.0" encoding="utf-8"?>
<!-- Generator: Adobe Illustrator 24.0.0, SVG Export Plug-In . SVG Version: 6.00 Build 0)  -->
<svg version="1.1" id="Capa_1" xmlns="http://www.w3.org/2000/svg" xmlns:xlink="http://www.w3.org/1999/xlink" x="0px" y="0px"
	 viewBox="0 0 72 72" style="enable-background:new 0 0 72 72;" xml:space="preserve">
<style type="text/css">
	.st0{fill:#FFFFFF;}
	.st1{fill:#F7E9AF;}
	.st2{opacity:0.83;}
	.st3{fill:#D69BB3;}
	.st4{fill:#F5DA62;}
	.st5{fill:#ECCAD9;}
</style>
<circle class="st0" cx="36" cy="36" r="35.7"/>
<g>
	<g>
		<path class="st1" d="M41.5,31c0,0,7.7-8.2,17.4-1.7c0,0,6.6,3.6,0.5,10.8s-16.8,6.2-17.9,5.1C40.5,44.1,41.5,31,41.5,31z"/>
	</g>
	<g>
		<path class="st1" d="M32.4,29.4c-0.4-0.9-1.1-1.5-1.8-1.9c-1.8-1-6.3-2.8-9.1,0.6c-3.7,4.3-5.2,4.9-7.6,6.9
			c-2.9,2.3-5.5,8.1,0.9,12c3.7,2.2,5.6,0.5,9.6-0.3c2.1-0.5,3.6-2.4,3.4-4.5c-0.3-3.2,7-3.4,6.7-8.3C34.4,33.7,33.8,32.4,32.4,29.4
			z"/>
	</g>
	<g>
		<path class="st1" d="M33.4,31.3c-1.5,1.2-8.7,7-3.7,14.2c0.3,0.4,0.5,0.8,0.6,1.2c0.7,1.8,3.4,7.2,9.3,6.8
			c7.1-0.6,3.8-12.5,5.5-15.8c0.1-0.1,0.1-0.2,0.2-0.4c0.6-1.4,3.2-8.1-1.6-9.9c-1.5-0.6-3.2-0.4-4.6,0.5l-5.1,3
			C33.7,31.1,33.5,31.2,33.4,31.3z"/>
	</g>
	<g class="st2">
		<g>
			<path class="st3" d="M5.1,28.2c-0.3-0.1-0.8-0.3-1.1-0.4c-0.7-0.1-0.6,0.5-1,0.3c-0.3-0.1-0.3-0.5-0.2-0.7s0.7-1.4,0.9-2.1
				c0.1-0.2,0.5-1.6,0.6-1.7c0.1-0.3,0.9-0.4,1.4-0.2c0.2,0.1,0.4,0.3,0.3,0.6c-0.2,0.5-0.9,0-1.4,1.4c-0.2,0.5-0.3,0.7,0.8,1.1
				c0.1,0.1,0.3,0.1,0.4-0.4c0.2-0.6-0.6-0.5-0.4-1c0.2-0.4,1-0.2,1.3-0.1c0.4,0.1,1.3,0.5,1.1,1c-0.2,0.5-0.9-0.3-1.2,0.5
				c-0.1,0.3,0,0.3,0.7,0.6c1.1,0.4,0.8-0.6,1.4-0.3c0.2,0.1,0.5,0.1-0.1,1.9c-0.4,1.2-0.7,1.4-1,1.2C7,29.6,7.4,29.3,7,29
				c-0.2-0.2-0.7-0.4-1-0.5L5.1,28.2z"/>
			<path class="st3" d="M8.4,21.5c-0.3-0.5-0.7-1.2-1.3-1.4c-0.5-0.3-0.7-0.8-0.3-1.4c0.4-0.6,1.2-0.6,1.8-0.5
				c0.3,0,2.9,0.4,3.7,0.5c0.7,0.1,0.6-0.5,1-0.2c0.5,0.3-0.2,1.3-0.4,1.5c-0.6,1-1,1.5-1.4,1.3c-0.3-0.2,0.1-0.5-0.2-0.7
				c-0.3-0.2-0.4,0-1.2,1c-0.2,0.4-0.4,0.6,0,0.8c0.3,0.2,0.4-0.4,0.7-0.1c0.4,0.3-0.1,1-0.2,1.3c-0.6,1-0.9,0.9-1.1,0.8
				c-0.3-0.2,0-0.5-0.1-0.9c-0.1-0.3-0.3-0.6-0.5-0.9L8.4,21.5z M9.8,20.4c0-0.1,0.2-0.3,0.1-0.3s-0.6-0.1-0.7-0.1
				c-0.1,0-0.5-0.1-0.6,0.1c-0.1,0.2,0.2,0.5,0.3,0.6s0.2,0.4,0.3,0.4c0.1,0.1,0.2-0.1,0.3-0.2L9.8,20.4z"/>
			<path class="st3" d="M15.3,12.1c0.1,0,0.5,0,0.6-0.1c0.2-0.1-0.1-0.4-0.2-0.5c-0.1-0.2-0.4-0.4-0.5-0.5c-0.3-0.2-0.6,0.2-0.8-0.1
				c-0.3-0.4,0.3-0.9,0.6-1.1s0.9-0.8,1.3-0.4c0.3,0.4-0.1,0.5,0,0.9c0.1,0.3,0.4,0.7,0.6,0.9l1.4,1.5c0.2,0.3,1,1.1,0.6,1.4
				c-0.1,0.1-0.3,0.1-0.5,0.1L15,14.2c-0.2,0-0.4,0-0.6,0.1c-0.2,0.2,0.2,0.6,0.3,0.7c0.1,0.2,0.4,0.4,0.5,0.5
				c0.4,0.3,0.6-0.1,0.9,0.2c0.4,0.4-0.2,1-0.5,1.3c-0.3,0.2-0.9,0.8-1.3,0.4c-0.3-0.3,0.2-0.5-0.1-1c-0.2-0.3-0.5-0.7-0.8-1
				c-0.4-0.4-0.8-0.9-1.2-1.3c-0.6-0.5-0.9,0.1-1.2-0.3c-0.4-0.4,0.5-1.1,0.7-1.4c0.4-0.3,0.5-0.4,1-0.4L15.3,12.1z"/>
			<path class="st3" d="M21.8,5.9c0.3-0.2,0.4-0.3,0.5-0.3c0.2-0.1,0.2-0.1,0.4-0.2c0.3-0.1,1.2,0.1,1.4,0.9
				c0.2,0.4,0.1,0.7-0.3,0.9c-0.6,0.3-1.1-0.6-1.4-0.4c-0.3,0.1-0.1,0.5,0,0.6l1.1,2.1c0.4,0.9,0.9,0.1,1.1,0.6
				c0.1,0.2,0.1,0.6-1.2,1.3c-0.4,0.2-1.6,0.9-1.9,0.3c-0.2-0.4,0.3-0.5,0.3-0.8c0-0.2-0.2-0.6-0.3-0.8l-0.7-1.5
				c-0.3-0.8-0.5-0.7-0.6-0.6c-0.3,0.1,0,1.1-0.6,1.4c-0.3,0.1-0.6,0-0.7-0.3c-0.3-0.6-0.2-1.6,0.2-1.8c0.1,0,0.1,0,0.3-0.1
				c0.1,0,0.4-0.1,0.7-0.3L21.8,5.9z"/>
			<path class="st3" d="M27.5,6.6c0.1-0.6,0.3-1.4,0.2-1.9c-0.1-0.5,0-1,0.7-1.2C29,3.3,29.6,4,30,4.4c0.2,0.2,1.8,2.3,2.3,2.9
				c0.4,0.5,0.7,0.1,0.8,0.5c0.1,0.6-1,0.8-1.4,0.9C30.7,8.9,30,9,29.9,8.6c-0.1-0.4,0.4-0.3,0.4-0.6c-0.1-0.4-0.3-0.3-1.5-0.1
				c-0.4,0.1-0.7,0.2-0.6,0.6c0.1,0.3,0.5,0,0.6,0.4c0.1,0.5-0.8,0.7-1.1,0.7c-1.1,0.3-1.3,0.1-1.3-0.2c-0.1-0.4,0.4-0.4,0.5-0.7
				c0.1-0.3,0.2-0.7,0.3-1L27.5,6.6z M29.2,6.8c0.1,0,0.3-0.1,0.3-0.2c0-0.1-0.3-0.5-0.4-0.6c-0.1-0.1-0.3-0.4-0.5-0.3
				c-0.2,0-0.2,0.6-0.2,0.6c0,0.1-0.1,0.4-0.1,0.5s0.2,0.1,0.3,0H29.2z"/>
			<path class="st3" d="M34.9,4.4c0-0.8,0.9-1.8,2.4-1.7c0.5,0,1.1,0.3,1.2,0.3s0.2-0.1,0.4-0.1c0.3,0,0.9,0.7,0.9,1.3
				c0,0.3-0.2,0.5-0.5,0.5c-0.5,0-0.8-1-1.6-1c-0.3,0-0.5,0.1-0.5,0.4c0,0.6,1.1,0.5,1.9,1.2c0.5,0.3,0.7,0.8,0.7,1.4
				c0,1-0.8,1.9-2.6,1.8c-0.5,0-1.4-0.2-1.8-0.4c-0.4-0.2-0.5-1.1-0.5-1.4C34.7,6.3,34.8,6,35,6c0.6,0,0.4,1.3,1.8,1.4
				c0.2,0,0.6-0.1,0.6-0.4c0-0.6-1.1-0.5-1.9-1.2C35.2,5.5,34.9,5,34.9,4.4z"/>
			<path class="st3" d="M46.3,4.2c0.3,0.1,0.5,0.1,0.6,0.1s0.2,0,0.3,0c0.4,0.1,0.9,0.9,0.6,1.7c-0.1,0.4-0.4,0.6-0.8,0.5
				c-0.7-0.2-0.4-1.1-0.8-1.2c-0.3-0.1-0.4,0.4-0.4,0.4l-0.7,2.3c-0.2,0.9,0.7,0.6,0.5,1.2c-0.1,0.2-0.3,0.6-1.7,0.2
				c-0.4-0.1-1.8-0.5-1.6-1.1C42.4,8,42.9,8.3,43.1,8c0.1-0.1,0.3-0.6,0.3-0.8l0.5-1.6c0.3-0.8,0.1-0.9,0-0.9
				c-0.4-0.1-0.8,0.8-1.4,0.6c-0.3-0.1-0.4-0.4-0.3-0.7c0.2-0.7,1-1.4,1.4-1.3c0.1,0,0.1,0.1,0.3,0.1c0.1,0.1,0.3,0.2,0.7,0.2
				L46.3,4.2z"/>
			<path class="st3" d="M50,8.2c0.5-0.9,0.5-1.2,0.5-1.3c-0.1-0.3-0.3-0.5-0.2-0.7c0.3-0.5,1.6,0.2,1.8,0.3c0.4,0.2,1.3,0.7,1.1,1.2
				c-0.1,0.3-0.4,0.1-0.7,0.2c-0.2,0.1-0.6,0.7-0.8,1.3l-0.4,0.7c-0.7,1.3-0.5,1.3-0.4,1.4c0.1,0.2,0.3,0.3,0.2,0.6
				c-0.1,0.2-0.3,0.5-1.8-0.3c-0.3-0.2-1.2-0.6-1-1.1c0.1-0.2,0.4-0.1,0.6-0.2C49,10.2,49.2,10,49.8,9L50,8.2z"/>
			<path class="st3" d="M53.3,14.5c-0.4-0.7-0.5-1-0.8-1.2c-0.1,0-0.1-0.1-0.2-0.1c-0.1-0.1-0.1-0.2,0-0.3c0.2-0.3,0.6-0.2,0.8,0
				l0.1,0.1c0,0,0.1,0.1,0.1,0c0.1-0.1-0.4-1.2,0.7-2.4c1.1-1.3,2.8-1.4,4.2-0.3c1.7,1.4,1.2,3.4,0.5,4.2c-0.8,1-1.9,1.2-3.1,0.9
				c0,0-0.1,0-0.2,0c-0.1,0.1,0,0.5,0.7,1.1c0.3,0.2,0.5,0.2,0.6,0.3c0.1,0.1,0,0.3,0,0.4c-0.2,0.2-1,0.4-2-0.4
				c-0.4-0.3-0.6-0.6-0.9-1L53.3,14.5z M57.3,11.1c-0.4-0.3-0.8-0.1-1.1,0.2c-0.4,0.5-1.3,2.3-0.6,2.8c0.4,0.3,0.8,0.1,1.1-0.2
				C57.1,13.4,57.9,11.7,57.3,11.1z"/>
			<path class="st3" d="M64.4,19.3c0.7-0.5,0-0.9,0.4-1.2s1,0.5,1.1,0.8c0.2,0.3,0.7,1,0.3,1.3c-0.4,0.3-0.5-0.4-1.1,0l-1.7,1.3
				c-0.3,0.2-1.8,1.4-3.4-0.9c-1.8-2.5,0.3-3.7,0.4-3.7l1.4-1.1c0.4-0.3,0.1-0.7,0.4-0.9c0.1-0.1,0.4-0.4,1.4,1
				c0.8,1.1,0.7,1.4,0.5,1.5c-0.5,0.3-0.4-0.5-1.2,0.1l-1.2,0.9c-0.8,0.6-1.1,1.2-0.6,1.8c0.8,1,1.5,0.4,1.6,0.3L64.4,19.3z"/>
			<path class="st3" d="M69,25.5c0.4,1,0.6,1.1,0.7,1.2c0.2,0.4-0.5,0.9-0.8,1s-0.6,0.1-0.7-0.2c-0.2-0.6,0.7-0.4,0.1-1.7
				c-0.4-0.8-0.5-0.7-1.4-0.3c-0.4,0.2-0.4,0.2-0.3,0.7c0.2,0.6,0.9-0.2,1.1,0.4c0.2,0.4-0.7,0.8-1,0.9s-1.2,0.4-1.4,0
				c-0.2-0.5,0.8-0.3,0.5-1.1c-0.1-0.3-0.4-0.2-0.7-0.1c-1.1,0.4-1,0.5-0.7,1.3c0.6,1.5,1.4,0.7,1.6,1.3c0.1,0.2-0.1,0.5-0.3,0.6
				c-0.5,0.2-1.5,0.2-1.6-0.2c0-0.1,0-0.2-0.1-0.4c0-0.2-0.1-0.4-0.2-0.7l-1.2-3c-0.2-0.5,0-0.6,0.1-0.6c0.4-0.2,0.3,0.5,1.1,0.2
				c1.4-0.4,1.3-0.4,2.5-1c1.1-0.5,0.3-0.8,0.9-1.1c0.5-0.2,0.6,0.5,0.8,0.8L69,25.5z"/>
		</g>
	</g>
	<g>
		<path class="st1" d="M4.7,32.1l0.5,1c0,0.1,0.1,0.2,0.2,0.2l1.1,0.2c0.3,0,0.4,0.3,0.2,0.5l-0.8,0.8c-0.1,0.1-0.1,0.2-0.1,0.3
			l0.2,1.1c0,0.2-0.2,0.4-0.4,0.3l-1-0.5c-0.1,0-0.2,0-0.3,0l-1,0.5c-0.2,0.1-0.5-0.1-0.4-0.3l0.2-1.2c0-0.1,0-0.2-0.1-0.3l-0.8-0.8
			c-0.2-0.2-0.1-0.5,0.2-0.5l1.1-0.2c0.1,0,0.2-0.1,0.2-0.2l0.5-1C4.3,31.9,4.6,31.9,4.7,32.1z"/>
	</g>
	<g>
		<path class="st1" d="M67.8,32.1l0.5,1c0,0.1,0.1,0.2,0.2,0.2l1.1,0.2c0.3,0,0.4,0.3,0.2,0.5L69,34.7c-0.1,0-0.1,0.1-0.1,0.2
			l0.2,1.1c0,0.2-0.2,0.4-0.4,0.3l-1-0.5c-0.1,0-0.2,0-0.3,0l-1,0.5c-0.2,0.1-0.5-0.1-0.4-0.3l0.2-1.1c0-0.1,0-0.2-0.1-0.3l-0.8-0.8
			c-0.2-0.2-0.1-0.5,0.2-0.5l1.1-0.2c0.1,0,0.2-0.1,0.2-0.2l0.5-1C67.4,31.9,67.7,31.9,67.8,32.1z"/>
	</g>
	<g>
		<circle class="st4" cx="17.7" cy="32.4" r="1.2"/>
		<path class="st4" d="M17.7,33.7c-0.7,0-1.3-0.6-1.3-1.3c0-0.7,0.6-1.3,1.3-1.3s1.3,0.6,1.3,1.3C18.9,33.1,18.3,33.7,17.7,33.7z
			 M17.7,31.3c-0.7,0-1.2,0.5-1.2,1.2c0,0.7,0.5,1.2,1.2,1.2s1.2-0.5,1.2-1.2C18.8,31.8,18.3,31.3,17.7,31.3z"/>
	</g>
	<g>
		<g>
			<path class="st4" d="M20.4,37.6c-0.1,0-0.1,0-0.2,0c-0.5-0.1-1-0.3-1.3-0.8c-0.4-0.5-0.5-1.1-0.5-1.6l1.2,0.2
				c-0.1,0.4,0.1,0.7,0.2,0.8c0.1,0.2,0.3,0.3,0.5,0.3c0.2,0,0.4-0.1,0.6-0.2c0.2-0.2,0.3-0.5,0.3-0.8l1.2-0.1
				c0,0.7-0.2,1.3-0.7,1.7C21.4,37.5,20.9,37.6,20.4,37.6z"/>
		</g>
	</g>
	<g>
		<circle class="st4" cx="24.3" cy="34.1" r="1.2"/>
		<path class="st4" d="M24.3,35.2c-0.7,0-1.3-0.6-1.3-1.3s0.6-1.3,1.3-1.3s1.3,0.6,1.3,1.3S25,35.2,24.3,35.2z M24.3,32.9
			c-0.7,0-1.2,0.5-1.2,1.2c0,0.7,0.5,1.2,1.2,1.2s1.2-0.5,1.2-1.2C25.5,33.4,25,32.9,24.3,32.9z"/>
	</g>
	<g>
		<circle class="st4" cx="55.5" cy="32.5" r="1.2"/>
		<path class="st4" d="M55.5,33.7c-0.7,0-1.3-0.6-1.3-1.3c0-0.7,0.6-1.3,1.3-1.3s1.3,0.6,1.3,1.3C56.7,33.1,56.1,33.7,55.5,33.7z
			 M55.5,31.4c-0.7,0-1.2,0.5-1.2,1.2c0,0.7,0.5,1.2,1.2,1.2s1.2-0.5,1.2-1.2C56.6,31.8,56.1,31.4,55.5,31.4z"/>
	</g>
	<g>
		<g>
			<path class="st4" d="M52.4,37.4c-0.4,0-0.9-0.2-1.3-0.5c-0.5-0.4-0.7-1-0.8-1.5l1.2-0.1c0,0.4,0.2,0.6,0.4,0.8
				c0.2,0.1,0.3,0.2,0.5,0.2s0.4-0.1,0.5-0.3c0.2-0.3,0.2-0.6,0.2-0.9l1.2-0.3c0.2,0.7,0,1.4-0.3,1.8c-0.4,0.5-0.9,0.8-1.4,0.8
				C52.5,37.4,52.5,37.4,52.4,37.4z"/>
		</g>
	</g>
	<g>
		<circle class="st4" cx="48.6" cy="33.4" r="1.2"/>
		<path class="st4" d="M48.6,34.7c-0.7,0-1.3-0.6-1.3-1.3c0-0.7,0.6-1.3,1.3-1.3s1.3,0.6,1.3,1.3C49.8,34.1,49.2,34.7,48.6,34.7z
			 M48.6,32.2c-0.7,0-1.2,0.5-1.2,1.2c0,0.7,0.5,1.2,1.2,1.2s1.2-0.5,1.2-1.2C49.7,32.8,49.2,32.2,48.6,32.2z"/>
	</g>
	<g>
		<circle class="st4" cx="33.2" cy="38.9" r="1.2"/>
		<path class="st4" d="M33.2,40.2c-0.7,0-1.3-0.6-1.3-1.3c0-0.7,0.6-1.3,1.3-1.3s1.3,0.6,1.3,1.3C34.4,39.6,33.9,40.2,33.2,40.2z
			 M33.2,37.7c-0.7,0-1.2,0.5-1.2,1.2c0,0.7,0.5,1.2,1.2,1.2s1.2-0.5,1.2-1.2C34.4,38.3,33.8,37.7,33.2,37.7z"/>
	</g>
	<g>
		<circle class="st4" cx="42.2" cy="38.9" r="1.2"/>
		<path class="st4" d="M42.2,40.2c-0.7,0-1.3-0.6-1.3-1.3c0-0.7,0.6-1.3,1.3-1.3s1.3,0.6,1.3,1.3C43.4,39.6,42.9,40.2,42.2,40.2z
			 M42.2,37.7c-0.7,0-1.2,0.5-1.2,1.2c0,0.7,0.5,1.2,1.2,1.2s1.2-0.5,1.2-1.2C43.3,38.3,42.9,37.7,42.2,37.7z"/>
	</g>
	<g>
		<g>
			<path class="st4" d="M37.4,42c-0.5,0-1-0.2-1.3-0.6c-0.4-0.4-0.7-1-0.7-1.6h1.2c0,0.4,0.2,0.7,0.3,0.8c0.2,0.1,0.3,0.2,0.5,0.2
				s0.4-0.1,0.5-0.3c0.2-0.2,0.3-0.6,0.2-0.9l1.2-0.2c0.1,0.7,0,1.4-0.4,1.8C38.4,41.7,37.9,41.9,37.4,42L37.4,42z"/>
		</g>
	</g>
	<g>
		<path class="st4" d="M49.4,26.5c-1.6,0-3.3,0.4-4.7,1.2c-1.3,0.7-2.4,1.5-3.4,2.7c-1.2-0.4-2.3-0.7-3.7-0.7
			c-2.1,0-4.1,0.6-5.7,1.6c-0.9-1.4-2.1-2.5-3.6-3.4c-1.6-1-3.5-1.4-5.3-1.4c-5.8,0-10.5,4.7-10.5,10.5s4.7,10.5,10.5,10.5
			c2,0,4-0.6,5.7-1.6c1.8,2.9,5.1,4.8,8.8,4.8c3.3,0,6.2-1.4,8.1-3.8c1.2,0.4,2.4,0.7,3.7,0.7c5.8,0,10.5-4.7,10.5-10.5
			C60,31.3,55.2,26.5,49.4,26.5z M23.1,46.3c-5.1,0-9.4-4.2-9.4-9.4c0-5.1,4.2-9.4,9.4-9.4c1.6,0,3.3,0.5,4.7,1.3
			c1.3,0.8,2.4,1.8,3.2,3.1c-2.3,1.9-3.9,4.8-3.9,8.1c0,1.6,0.4,3.3,1.1,4.6C26.7,45.9,25,46.3,23.1,46.3z M37.7,49.5
			c-5.1,0-9.4-4.2-9.4-9.4c0-5.1,4.2-9.4,9.4-9.4c5.1,0,9.4,4.2,9.4,9.4C47,45.3,42.9,49.5,37.7,49.5z M49.4,46.3
			c-1,0-1.9-0.2-2.9-0.5c1.1-1.6,1.7-3.6,1.7-5.7c0-4.1-2.3-7.6-5.7-9.4c1.7-2,4.3-3.1,7-3.1c5.1,0,9.4,4.2,9.4,9.4
			C58.8,42.2,54.6,46.3,49.4,46.3z"/>
	</g>
	<g>
		<path class="st5" d="M11.3,58.1c-0.2-0.2-0.5-0.4-0.7-0.7c-0.7-0.7-0.6-1.6,0.1-2.1c0.8-0.6,1.8-0.5,2.6,0.4
			c0.2,0.2,0.4,0.6,0.5,0.7l-0.7,0.5c-0.1-0.2-0.1-0.3-0.2-0.4c0-0.1-0.1-0.1-0.2-0.2c-0.4-0.5-1.1-0.6-1.4-0.2
			c-0.4,0.3-0.4,0.7,0,1.1c0.2,0.2,0.3,0.3,0.7,0.6L11.3,58.1z"/>
		<path class="st5" d="M15.3,58.5c0.5-0.1,0.8,0,0.9,0.1c0.1,0.1,0.2,0.3,0.2,0.6l-0.9,0.3c0-0.3,0-0.5-0.1-0.6
			c-0.2-0.2-0.5-0.1-0.7-0.1l-1.5,1.4l-0.7-0.6l2.4-1.9l0.7,0.6L15.3,58.5L15.3,58.5z"/>
		<path class="st5" d="M17.7,63.5c-0.4-0.1-0.8-0.3-1-0.5c-0.8-0.6-0.9-1.4-0.4-2.1c0.6-0.8,1.5-1,2.3-0.4c0.8,0.6,0.8,1.4,0,2.1
			l-1.6-1.2c-0.3,0.4-0.3,0.8,0.1,1.1c0.2,0.2,0.6,0.3,1.2,0.4L17.7,63.5z M18.3,61.8c0.2-0.2,0.2-0.6,0-0.7
			c-0.3-0.2-0.5-0.2-0.9,0.1L18.3,61.8z"/>
		<path class="st5" d="M21.4,65.5c-0.4,0.1-0.7,0-1-0.1c-0.6-0.3-0.7-1-0.4-1.6c0.4-0.8,1.4-1.4,2.8-0.7c0.4,0.2,0.6,0.3,0.9,0.6
			L22,66.2l-0.8-0.4L21.4,65.5z M22.6,63.8c-0.1,0-0.1-0.1-0.2-0.1c-0.9-0.5-1.4,0.2-1.5,0.6c-0.2,0.3-0.1,0.6,0.1,0.8
			c0.2,0.1,0.5,0.1,0.7,0.1L22.6,63.8z"/>
		<path class="st5" d="M25.8,64.3l0.3-0.6l0.9,0.3l-0.4,0.6l0.7,0.2l-0.4,0.6l-0.7-0.2l-0.5,0.9c-0.2,0.3-0.2,0.6,0,0.7
			c0.1,0,0.3,0,0.6,0l-0.3,0.8c-0.3,0-0.6,0-0.8-0.1c-0.7-0.3-0.8-1-0.5-1.5l0.6-1.1l-0.6-0.2L25,64L25.8,64.3z"/>
		<path class="st5" d="M27.9,68.2l1.2-2.9l0.9,0.2l-1.2,2.9L27.9,68.2z M30.2,64.7c-0.1,0.3-0.3,0.4-0.6,0.4
			c-0.3-0.1-0.4-0.3-0.4-0.6c0.1-0.3,0.3-0.4,0.6-0.4C30.1,64.2,30.2,64.5,30.2,64.7z"/>
		<path class="st5" d="M32.3,67.7l1.1-1.6l1,0.1l-2,2.9L31.7,69l-0.4-3.2l0.8,0.2L32.3,67.7L32.3,67.7z"/>
		<path class="st5" d="M37.9,69.1c-0.4,0.2-0.8,0.2-1.1,0.2c-1,0-1.5-0.6-1.5-1.4c0-1,0.7-1.7,1.6-1.7c1,0,1.5,0.7,1.3,1.7h-2
			c0,0.5,0.3,0.8,0.7,0.8c0.3,0,0.7-0.1,1.2-0.3L37.9,69.1z M37.4,67.3c0.1-0.3-0.1-0.6-0.5-0.6c-0.3,0-0.5,0.2-0.7,0.6H37.4z"/>
		<path class="st5" d="M43.9,65.7L43.9,65.7c0.2-0.4,0.5-0.6,0.8-0.7c0.4-0.1,0.8,0,0.9,0.3c0.3-0.5,0.6-0.8,0.9-0.9
			c0.7-0.2,1.1,0.2,1.2,1l0.3,1.9L47,67.6l-0.3-1.7c-0.1-0.4-0.2-0.7-0.4-0.6S46,65.6,45.8,66l0.3,1.9l-0.9,0.3l-0.3-1.7
			c-0.1-0.5-0.2-0.7-0.5-0.6c-0.2,0.1-0.4,0.3-0.6,0.7l0.3,1.9l-0.9,0.3l-0.5-3.1l0.9-0.3L43.9,65.7z"/>
		<path class="st5" d="M52.4,65.1c-0.3,0.3-0.6,0.6-0.9,0.7c-0.9,0.4-1.6,0.2-2-0.7c-0.4-0.9-0.1-1.8,0.8-2.2c0.9-0.4,1.6,0,1.9,1
			l-1.8,0.9c0.2,0.5,0.6,0.6,1,0.4c0.3-0.1,0.5-0.4,0.9-0.8L52.4,65.1z M51.2,63.7c-0.1-0.3-0.4-0.5-0.7-0.3
			c-0.3,0.1-0.4,0.4-0.3,0.8L51.2,63.7z"/>
		<path class="st5" d="M53.2,62.1l-0.4-0.7l2.2-1.5l0.1,2.8l1.1-0.8l0.4,0.7l-2.3,1.6v-2.8L53.2,62.1z"/>
		<path class="st5" d="M56.6,59.6l-0.5-0.7l1.9-1.8l0.5,2.7l1-0.9l0.5,0.7l-2.1,1.9l-0.4-2.8L56.6,59.6z"/>
		<path class="st5" d="M59.6,56.7l-0.5-0.6l1.7-2l0.8,2.6l0.9-1.1l0.5,0.6l-1.8,2.2l-0.8-2.7L59.6,56.7z"/>
	</g>
</g>
</svg>
