<?xml version="1.0" encoding="utf-8"?>
<!-- Generator: Adobe Illustrator 24.0.0, SVG Export Plug-In . SVG Version: 6.00 Build 0)  -->
<svg version="1.1" id="Capa_1" xmlns="http://www.w3.org/2000/svg" xmlns:xlink="http://www.w3.org/1999/xlink" x="0px" y="0px"
	 viewBox="0 0 30 30" style="enable-background:new 0 0 30 30;" xml:space="preserve">
<style type="text/css">
	.st0{fill:#DCACC0;}
</style>
<g>
	<ellipse class="st0" cx="15.1" cy="15" rx="3.6" ry="3.5"/>
	<path class="st0" d="M19.6,6.3l-9,0.1c-2.3,0-4.2,1.9-4.2,4.2v8.9c0,2.3,1.9,4.2,4.2,4.2h9c2.3,0,4.2-1.9,4.2-4.2v-9
		C23.8,8.2,21.9,6.3,19.6,6.3z M15.1,20.3c-2.9,0-5.4-2.4-5.4-5.3s2.4-5.3,5.4-5.3c2.9,0,5.4,2.4,5.4,5.3S18,20.3,15.1,20.3z
		 M20.8,10.6c-0.7,0-1.3-0.6-1.3-1.2c-0.1-0.7,0.5-1.3,1.2-1.3S22,8.7,22,9.4S21.5,10.6,20.8,10.6z"/>
	<path class="st0" d="M25,0H5C2.4,0,0,2.4,0,5v20c0,2.6,2.4,5,5,5h20c2.6,0,5-2.4,5-5V5C30,2.4,27.6,0,25,0z M25.6,19.4
		c0,3.3-2.7,6-5.9,6h-9.1c-3.3,0-5.9-2.6-5.9-5.9v-9c0-3.3,2.7-5.9,5.9-5.9h9c3.4,0,6,2.6,6,5.9V19.4z"/>
</g>
<rect x="42.8" y="15.7" class="st0" width="30.3" height="30.3"/>
</svg>
