<?xml version="1.0" encoding="utf-8"?>
<!-- Generator: Adobe Illustrator 24.0.0, SVG Export Plug-In . SVG Version: 6.00 Build 0)  -->
<svg version="1.1" id="Capa_1" xmlns="http://www.w3.org/2000/svg" xmlns:xlink="http://www.w3.org/1999/xlink" x="0px" y="0px"
	 viewBox="0 0 30 30" style="enable-background:new 0 0 30 30;" xml:space="preserve">
<style type="text/css">
	.st0{fill:#FFF8F4;}
</style>
<g>
	<g>
		<path class="st0" d="M28,8.4l-26,0c-1.1,0-2-0.9-2-2s0.9-2,2-2l26,0c1.1,0,2,0.9,2,2S29.1,8.4,28,8.4z"/>
	</g>
	<g>
		<path class="st0" d="M28,17L2,17c-1.1,0-2-0.9-2-2s0.9-2,2-2l26,0c1.1,0,2,0.9,2,2C30,16.1,29.1,17,28,17z"/>
	</g>
	<g>
		<path class="st0" d="M28,25.6l-26,0c-1.1,0-2-0.9-2-2s0.9-2,2-2l26,0c1.1,0,2,0.9,2,2S29.1,25.6,28,25.6z"/>
	</g>
</g>
</svg>
