<?xml version="1.0" encoding="utf-8"?>
<!-- Generator: Adobe Illustrator 24.0.0, SVG Export Plug-In . SVG Version: 6.00 Build 0)  -->
<svg version="1.1" id="Capa_1" xmlns="http://www.w3.org/2000/svg" xmlns:xlink="http://www.w3.org/1999/xlink" x="0px" y="0px"
	 viewBox="0 0 30 30" style="enable-background:new 0 0 30 30;" xml:space="preserve">
<style type="text/css">
	.st0{fill:#DCACC0;}
</style>
<g>
	<path class="st0" d="M30.1,11.6v12.2c0,2.3-1.9,4.2-4.2,4.2H4.2C1.9,28,0,26.1,0,23.8V11.6l4.6,2.6c2.2,1.2,4.6,2.1,7.1,2.5
		c0,0.1,0,0.2,0,0.3c0,1.9,1.5,3.4,3.4,3.4s3.4-1.5,3.4-3.4c0-0.1,0-0.2,0-0.3c2.5-0.4,4.9-1.2,7.1-2.5L30.1,11.6z"/>
	<path class="st0" d="M25.9,7.3h-1.5v-1c0-2.3-1.9-4.2-4.2-4.2H9.9C7.6,2.1,5.8,4,5.8,6.3v1H4.2c-1.8,0-3.4,1.2-4,2.8l5.1,2.8
		c2.1,1.2,4.5,2,6.8,2.3c0.6-1,1.7-1.7,2.9-1.7s2.3,0.7,2.9,1.7c2.4-0.3,4.7-1.1,6.8-2.3l5.1-2.8C29.3,8.4,27.7,7.3,25.9,7.3z
		 M7.2,7.3v-1c0-1.5,1.2-2.8,2.8-2.8h10.3c1.5,0,2.8,1.2,2.8,2.8v1H7.2z"/>
</g>
</svg>
